<svg width="579" height="92" viewBox="0 0 579 92" fill="none" xmlns="http://www.w3.org/2000/svg">
<path fill-rule="evenodd" clip-rule="evenodd" d="M568.013 5.55111H566.427V9.51622H568.013C568.809 9.51622 569.605 8.7232 570.395 8.7232C570.395 8.7232 571.191 7.93017 571.191 7.13715C571.191 7.13715 571.191 6.34729 570.395 5.55111H568.013ZM568.809 3.96508C569.605 3.96508 571.191 4.7581 571.981 4.7581C572.777 4.7581 573.567 6.34413 573.567 7.13715C573.567 7.93017 572.777 8.7232 572.777 9.51622C571.981 9.51622 571.191 10.3092 570.395 10.3092L572.777 15.0673H570.395L568.809 11.1023H566.427V15.0673H564.051V3.96192H568.809V3.96508V3.96508ZM576.745 9.51938C576.745 8.72636 576.745 7.93333 575.949 6.34729C575.949 5.55427 575.159 4.76126 574.363 3.96824C573.567 3.17522 571.981 2.38221 571.191 2.38221C570.395 1.58919 568.809 1.58919 568.013 1.58919H564.84L562.465 3.96824C561.668 4.76126 560.082 5.55427 560.082 6.34729V12.6914C560.082 14.2775 560.872 15.0705 562.465 15.8635C563.254 16.6565 564.051 17.4495 564.84 17.4495C565.637 18.2426 567.223 18.2426 568.013 18.2426C568.809 18.2426 570.395 18.2426 571.191 17.4495C571.981 17.4495 573.567 16.6565 574.363 15.8635C575.159 15.0705 575.949 14.2775 575.949 13.4845C576.745 12.6946 576.745 11.1054 576.745 10.3124V9.51938V9.51938ZM568.013 0C569.605 0 571.191 0 571.981 0.789859C573.567 0.789859 574.363 2.37589 575.159 3.16891C575.949 3.16891 577.535 4.75494 577.535 5.54796C577.535 7.13399 578.331 8.72005 578.331 9.51306C578.331 11.0991 577.535 12.6883 577.535 14.2743C577.535 15.0673 575.949 16.6534 575.159 16.6534C574.363 17.4464 573.567 19.0324 571.981 19.0324C571.191 19.8255 568.809 19.8255 568.013 19.8255C566.427 19.8255 564.84 19.8255 564.051 19.0324C563.254 19.0324 561.668 17.4464 560.872 16.6534C560.082 15.8604 559.286 15.0673 559.286 13.4813C558.496 12.6914 558.496 11.1023 558.496 9.51622V6.34413C559.286 4.75809 560.082 3.16891 560.872 3.16891C562.465 2.37589 563.254 0.789859 564.051 0.789859C564.84 0 566.427 0 568.013 0ZM197.534 90.4388H217.366C271.313 90.4388 264.17 6.34729 217.366 6.34729H197.534L195.155 8.72636V88.0566C195.155 88.0566 196.741 90.4388 197.534 90.4388ZM219.748 30.9403C239.58 30.9403 238.787 66.6388 219.748 67.4318C218.162 67.4318 217.366 66.6388 217.366 65.0528V33.3194C217.366 31.7334 218.162 30.9403 219.748 30.9403V30.9403ZM368.896 60.2915H353.822L361.752 38.8737L368.896 60.2915ZM347.471 80.9163H376.036L379.208 90.4388H402.212L403.008 88.0566L372.857 6.34729H349.854L321.296 88.0566L322.882 90.4388H343.509L347.471 80.9163ZM502.17 6.34729H522.798C558.496 6.34729 567.223 34.1124 547.388 56.3264L560.872 88.0566L558.496 90.4388H538.665L523.591 60.2915L522.801 59.4985V88.0566L521.209 90.4388H502.173C502.173 90.4388 500.587 89.6426 500.587 88.0566V8.72636C500.584 7.13717 501.374 6.34729 502.17 6.34729ZM524.387 26.1791C538.668 26.1791 538.668 46.014 524.387 46.014C523.591 46.014 522.801 45.221 522.801 44.428V28.5645C522.801 26.9721 523.591 26.1791 524.387 26.1791V26.1791ZM28.5581 40.4597L45.2178 8.72636L60.2915 39.6667L66.6356 11.1054L68.2248 6.34729H88.8496L88.0566 12.6946L76.9512 91.2318H61.0845L57.9124 88.0566V86.4706L45.2178 56.3264L30.9372 86.4706V87.2636L27.7651 90.4388H12.6914L1.58604 12.6946L0 6.34729H20.6248L23.0038 11.1054L28.5581 40.4597V40.4597ZM91.2318 6.34729H133.274L135.657 7.93335L141.208 28.5613H114.236V37.2845H129.309L131.688 38.8737V58.7055L129.309 60.2915H114.236V68.2248H142.001L138.036 88.0566L135.657 91.2318H91.2318L90.4388 88.0566V8.72636L91.2318 6.34729Z" fill="#2F401E"/>
<path fill-rule="evenodd" clip-rule="evenodd" d="M143.587 6.34717H185.636L188.015 7.93322L192.776 28.5612H166.597V37.2844H181.671L183.254 38.8736V58.7053L181.671 60.2914H166.597V68.2247H195.155L190.394 88.0565L188.015 91.2317H143.587L142.794 88.0565V8.72624L143.587 6.34717ZM272.903 6.34717H314.945L317.327 7.93322L322.082 28.5612H295.906V37.2844H310.187L312.569 38.8736V58.7053L310.187 60.2914H295.906V68.2247H323.675L319.706 88.0565L317.327 91.2317H272.903L271.316 88.0565V8.72624L272.903 6.34717ZM448.226 6.34717H490.268L491.861 7.93322L497.409 28.5612H471.23V37.2844H485.51L487.893 38.8736V58.7053L485.51 60.2914H471.23V68.2247H498.998L495.033 88.0565L492.651 91.2317H448.226L446.64 88.0565V8.72624L448.226 6.34717V6.34717ZM391.899 6.34717H440.289L442.672 7.93322L445.844 26.972L443.461 28.5612H427.598V88.0565L426.012 91.2317H407.766L406.18 88.0565V28.5612H389.517L387.931 26.972L390.313 8.72624L391.899 6.34717V6.34717Z" fill="#2F401E"/>
</svg>
